# xmcd
#
# Track frame offsets:
#	150
#	18743
#	34025
#	55315
#	70075
#	85116
#	100386
#	115923
#	133458
#	151072
#	166000
#	181339
#	192527
#	208392
#	222269
#
# Disc length: 3282 seconds
# Revision: 0
# Processed by: cddbd v1.5.2PL0 Copyright (c) Steve Scherf et al.
# Submitted via: dBpowerAMP V12.0
#
DISCID=da0cd00f
DTITLE=Various Artist - Vos Chansons...Les Mélodies de votre quotidien
DYEAR=2010
DGENRE=Quebecquois
TTITLE0=Fred Pellerin - Mille après mille
TTITLE1=Kevin Parent - Besoin d'amour
TTITLE2=Jonathan Painchaud - Pousse pousse
TTITLE3=Vincent Vallières - En attendant le soleil
TTITLE4=Kain - A moitié moins heureux
TTITLE5=Eric Lapointe - 1500 miles
TTITLE6=Dany Bédar - Tant
TTITLE7=Jean Leloup - La plus belle fille de la prison
TTITLE8=Andrée Watters - Tout de moi
TTITLE9=Marie-Luce Béland - Pleine lune
TTITLE10=The Lost Fingers - Ca plane pour moi
TTITLE11=Garou - Gentleman cambrioleur
TTITLE12=Bruno Pelletier - Je sais nous
TTITLE13=Ariane Moffatt - Je veux tout
TTITLE14=Elisa Isaac - Moi, Elsie
EXTD=
EXTT0=
EXTT1=
EXTT2=
EXTT3=
EXTT4=
EXTT5=
EXTT6=
EXTT7=
EXTT8=
EXTT9=
EXTT10=
EXTT11=
EXTT12=
EXTT13=
EXTT14=
PLAYORDER=
